<svg xmlns="http://www.w3.org/2000/svg" viewBox="0 0 84.56 108.91"><defs><style>.cls-1{fill:#febd01;}.cls-2{fill:#fff;}</style></defs><g id="Capa_2" data-name="Capa 2"><g id="GUÃAS"><path class="cls-1" d="M56.82,9.73C54.35,1.11,44-2.2,31.08,1.5s-20,12-17.49,20.59L14,23.47l1.13-.33a4.37,4.37,0,0,0-.32,3.17l.11.39a4.37,4.37,0,0,0,2.93,3,4.34,4.34,0,0,0-.92,4.06l.13.47A4.31,4.31,0,0,0,19,36.7L17.86,37l.39,1.37c1.26,4.43,4.31,6.58,9.3,6.58,4.15,0,9.36-1.49,14.88-3.07l.38-.11c11-3.15,21.43-6.12,18.67-15.76l-.39-1.37L60,25a4.35,4.35,0,0,0,.32-3.16l-.14-.47a4.34,4.34,0,0,0-2.93-3,4.35,4.35,0,0,0,.93-4.06L58,14a4.31,4.31,0,0,0-1.94-2.52l1.13-.32Z"/><path class="cls-2" d="M57.91,26c2.15,7.51-6.07,9.83-16.19,12.73S23.39,44,21.25,36.46Z"/><path class="cls-2" d="M51.51,13.22l-.93.26c-.36.91-1.75,1.88-3.56,2.4s-3.51.42-4.29-.15l-3.08.88c-.36.9-1.75,1.87-3.56,2.39s-3.51.43-4.29-.15l-3.08.88c-.36.91-1.75,1.88-3.57,2.4s-3.5.42-4.28-.15l-.94.26a2.65,2.65,0,0,0-1.81,3.27l.1.36a2.64,2.64,0,0,0,3.27,1.81l31.58-9a2.65,2.65,0,0,0,1.81-3.27l-.1-.36A2.64,2.64,0,0,0,51.51,13.22Z"/><path class="cls-2" d="M53.43,19.93l-4.54,1.3-1,3.91a.89.89,0,0,1-1.07.65L39.32,24,21.85,29A2.64,2.64,0,0,0,20,32.23l.12.42a2.65,2.65,0,0,0,3.27,1.82l31.57-9a2.65,2.65,0,0,0,1.82-3.27l-.12-.43A2.65,2.65,0,0,0,53.43,19.93Z"/><path class="cls-2" d="M32,4.64C21.86,7.54,14.88,14.2,17,21.7L53.69,11.22C51.55,3.71,42.1,1.75,32,4.64ZM21.27,15.07c-.33.29-.7.41-.85.26s0-.5.32-.79.7-.42.84-.27S21.59,14.77,21.27,15.07ZM24,11.4c-.19.43-.51.69-.71.59s-.2-.53,0-1,.51-.69.71-.59S24.15,11,24,11.4Zm2.71,1.15c-.56.17-1.09.08-1.17-.19s.33-.61.9-.78,1.09-.07,1.17.19S27.24,12.39,26.66,12.55ZM28.1,9.33c-.49-.05-.88-.27-.87-.5s.43-.39.92-.35.89.27.88.5S28.6,9.37,28.1,9.33Zm3.4,2.8c-.12.12-.44,0-.72-.25s-.41-.58-.3-.71.45,0,.73.25S31.62,12,31.5,12.13Zm2.29-3c-.14.25-.68.21-1.21-.09s-.84-.74-.7-1,.68-.21,1.2.09S33.93,8.87,33.79,9.12Zm2.6,1.63c-.19.06-.44-.2-.57-.59s-.08-.76.11-.82.43.21.56.6S36.58,10.69,36.39,10.75Zm.88-4.12c-.32.3-.7.41-.84.27s0-.51.31-.8.7-.41.85-.26S37.59,6.34,37.27,6.63Zm3.34,1.75c-.58-.05-1-.31-1-.58s.49-.45,1.06-.39,1,.31,1,.57S41.18,8.43,40.61,8.38Zm4.24.92c-.13.18-.55.12-.94-.15s-.59-.61-.46-.79.56-.12.94.14S45,9.12,44.85,9.3ZM45.5,7c-.14.18-.55.12-.94-.15s-.59-.62-.46-.8.55-.11.94.15S45.63,6.82,45.5,7Z"/><path class="cls-1" d="M50.73,100.26a8.44,8.44,0,1,0,8.46-8.64A8.58,8.58,0,0,0,50.73,100.26Zm20-77.8-4,8.64H4.23A4.36,4.36,0,0,0,.51,37.5L15.64,65.55A8.4,8.4,0,0,0,23,70h31.5l3.8,7,.13.52a1.06,1.06,0,0,1-1.06,1.08H8.46v8.64H59.19a8.64,8.64,0,0,0,7.4-12.79L60.88,63.91,76.1,31.1h8.46V22.46ZM8.46,100.26a8.57,8.57,0,0,0,8.45,8.65,8.65,8.65,0,0,0,0-17.29A8.57,8.57,0,0,0,8.46,100.26Z"/></g></g></svg>