<?xml version="1.0" encoding="UTF-8"?>
<svg id="Capa_2" data-name="Capa 2" xmlns="http://www.w3.org/2000/svg" viewBox="0 0 523.68 220.76">
  <defs>
    <style>
      .cls-1 {
        fill: #bb8d01;
      }

      .cls-1, .cls-2 {
        stroke-width: 0px;
      }

      .cls-2 {
        fill: #febd01;
      }
    </style>
  </defs>
  <g id="TEXTO">
    <g>
      <path class="cls-2" d="M135.96,81.89c0,2.95.21,5.52.63,7.72.42,2.2,1.07,4.16,1.96,5.89.72,1.56.89,2.88.5,3.97-.39,1.09-1.42,1.63-3.09,1.63h-22.29c-1.67,0-2.7-.54-3.09-1.63-.39-1.09-.2-2.41.58-3.97.83-1.72,1.46-3.69,1.88-5.89.42-2.2.63-4.77.63-7.72v-8.26c0-.67-.04-1.34-.13-2-.08-.67-.27-1.25-.54-1.75-.28-.5-.68-.92-1.21-1.25-.53-.33-1.21-.5-2.05-.5-1.34,0-2.34.42-3.01,1.25-.67.83-1,1.98-1,3.42v9.1c0,2.95.21,5.52.63,7.72.42,2.2,1.07,4.16,1.96,5.89.72,1.56.89,2.88.5,3.97-.39,1.09-1.42,1.63-3.09,1.63h-22.29c-1.67,0-2.7-.54-3.09-1.63-.39-1.09-.2-2.41.58-3.97.83-1.72,1.46-3.69,1.88-5.89.42-2.2.63-4.77.63-7.72v-28.88c0-2.95-.21-5.51-.63-7.68-.42-2.17-1.04-4.15-1.88-5.93-.78-1.56-.97-2.88-.58-3.97.39-1.09,1.42-1.63,3.09-1.63h18.62c.95,0,1.8.22,2.55.67.75.45,1.13,1.14,1.13,2.09v24.46c1.45-2.5,3.37-4.58,5.76-6.22,2.39-1.64,5.2-2.46,8.43-2.46,2.89,0,5.36.49,7.39,1.46,2.03.97,3.69,2.31,4.97,4.01,1.28,1.7,2.21,3.69,2.8,5.97.58,2.28.88,4.76.88,7.43v10.69Z"/>
      <g>
        <path class="cls-1" d="M294.15,19.03c5.1-1.34,20.9,2.85,20.9,2.85.14-1.63,1.7-2.75,3.29-2.36l12.15,2.99c3.88.95,6.28,4.83,5.41,8.73-.9,4.03-4.95,6.53-8.96,5.52l-12.12-3.06c-1.3-.33-2.16-1.57-1.99-2.9l.03-.28s-12.31-3.27-16.28-2.22c-12.52,3.29-38.54,27.22-46.84,35.08-4.91,26.01,3.57,53.87,24.8,72.73,32.15,28.57,81.38,25.66,109.94-6.5,28.57-32.15,25.66-81.38-6.5-109.94-32.15-28.57-81.38-25.66-109.94,6.5-5.58,6.28-9.96,13.22-13.15,20.52,12.06-10.74,29.51-25.08,39.25-27.64ZM345.9,95.31c-9.63,10.84-26.22,11.82-37.06,2.19-10.84-9.63-11.82-26.22-2.19-37.06,9.63-10.84,26.22-11.82,37.06-2.19,10.84,9.63,11.82,26.22,2.19,37.06Z"/>
        <path class="cls-2" d="M347.3,77.77c0,3.01-.51,5.79-1.54,8.33s-2.46,4.74-4.3,6.6c-1.84,1.86-4.04,3.32-6.62,4.38-2.58,1.06-5.43,1.59-8.53,1.59s-5.95-.53-8.53-1.59c-2.58-1.06-4.8-2.52-6.65-4.38-1.86-1.86-3.3-4.06-4.33-6.6s-1.54-5.32-1.54-8.33.51-5.79,1.54-8.33,2.47-4.74,4.33-6.6c1.85-1.86,4.07-3.32,6.65-4.38,2.58-1.06,5.42-1.59,8.53-1.59s5.95.53,8.53,1.59c2.58,1.06,4.79,2.52,6.62,4.38,1.84,1.86,3.27,4.06,4.3,6.6s1.54,5.32,1.54,8.33ZM330.84,77.77c0-2.26-.37-4.09-1.12-5.51-.75-1.41-1.89-2.12-3.42-2.12s-2.68.71-3.45,2.12c-.77,1.41-1.15,3.25-1.15,5.51s.38,4.02,1.15,5.44c.77,1.41,1.92,2.12,3.45,2.12s2.67-.71,3.42-2.12c.75-1.41,1.12-3.22,1.12-5.44Z"/>
        <path class="cls-2" d="M176.39,147.54c3.99,2.15,7.27,4.99,9.82,8.54,2.55,3.55,3.83,7.62,3.83,12.2,0,7.32-2.52,12.85-7.54,16.59-5.03,3.74-12.5,5.6-22.41,5.6h-40.5c-2.22,0-3.59-.72-4.1-2.16-.52-1.44-.26-3.2.78-5.27,1.11-2.29,1.94-4.9,2.5-7.82.55-2.92.83-6.34.83-10.26v-32.18c0-3.92-.28-7.34-.83-10.26-.55-2.92-1.39-5.53-2.5-7.82-1.04-2.07-1.3-3.83-.78-5.27.52-1.44,1.89-2.16,4.1-2.16h37.72c9.76,0,17.29,1.7,22.58,5.1,5.29,3.4,7.93,8.92,7.93,16.53,0,4.07-.96,7.69-2.88,10.87-1.92,3.18-4.77,5.77-8.54,7.77ZM157.87,133.23c0-.74-.15-1.55-.44-2.44-.3-.89-.72-1.74-1.28-2.55-.55-.81-1.26-1.5-2.11-2.05-.85-.55-1.83-.83-2.94-.83h-1.55v16.64h1.22c1.26,0,2.33-.28,3.22-.83s1.63-1.26,2.22-2.11c.59-.85,1.02-1.79,1.28-2.83.26-1.04.39-2.03.39-3ZM151.87,172.4c2.74,0,4.79-.85,6.16-2.55,1.37-1.7,2.05-3.51,2.05-5.44,0-.89-.19-1.85-.55-2.89-.37-1.04-.89-1.98-1.55-2.83-.67-.85-1.48-1.57-2.44-2.16-.96-.59-2.07-.89-3.33-.89h-2.66v16.75h2.33Z"/>
        <path class="cls-2" d="M245.44,171.35c0,2.93.21,5.48.62,7.67.41,2.18,1.06,4.13,1.95,5.84.72,1.55.88,2.86.5,3.94-.39,1.08-1.41,1.62-3.07,1.62h-18.48c-.94,0-1.78-.22-2.53-.66-.75-.44-1.12-1.13-1.12-2.07v-5.06c-1.44,2.49-3.27,4.55-5.51,6.18-2.24,1.63-4.82,2.44-7.75,2.44-3.15,0-5.79-.48-7.92-1.45-2.13-.97-3.85-2.29-5.18-3.98-1.33-1.68-2.27-3.66-2.82-5.93-.55-2.27-.83-4.72-.83-7.38v-10.61c0-2.93-.21-5.47-.62-7.63-.41-2.15-1.04-4.12-1.86-5.89-.77-1.55-.97-2.86-.58-3.94.39-1.08,1.41-1.62,3.07-1.62h22.13c1.66,0,2.68.54,3.07,1.62.39,1.08.22,2.39-.5,3.94-.88,1.77-1.53,3.73-1.95,5.89-.42,2.16-.62,4.7-.62,7.63v8.21c0,.66.04,1.33.12,1.99.08.66.26,1.26.54,1.78.28.53.68.95,1.2,1.28.52.33,1.2.5,2.03.5,1.33,0,2.32-.43,2.98-1.28.66-.86.99-2,.99-3.44v-9.04c0-2.93.67-16.04-.62-20.63-.6-2.11-1.04-4.12-1.87-5.89-.77-1.55-.97-2.86-.58-3.94.39-1.08,1.41-1.62,3.07-1.62h22.13c1.66,0,2.68.54,3.07,1.62.39,1.08.22,2.39-.5,3.94-.88,1.77-1.39,3.76-1.95,5.89-1.07,4.09-.62,17.7-.62,20.63v9.45Z"/>
        <path class="cls-2" d="M443.52,142.94c1.11-.22,1.98-.19,2.62.08.64.28.96,1.3.96,3.08v14.79c0,1.94-.69,2.91-2.08,2.91-1.05,0-2.19-.53-3.41-1.58-.5-.44-1.07-.93-1.7-1.45-.64-.53-1.37-1.01-2.2-1.45-.83-.44-1.77-.83-2.83-1.16-1.05-.33-2.24-.5-3.57-.5-2.49,0-4.32.72-5.49,2.16-1.16,1.44-1.75,3.49-1.75,6.15v5.4c0,2.94.21,5.5.62,7.69.42,2.19,1.07,4.14,1.95,5.86.78,1.55.96,2.87.54,3.95-.42,1.08-1.45,1.62-3.12,1.62h-22.19c-1.66,0-2.69-.54-3.07-1.62-.39-1.08-.2-2.4.58-3.95.83-1.72,1.45-3.67,1.87-5.86.42-2.19.62-4.75.62-7.69v-9.39c0-2.94-.21-5.5-.62-7.69-.42-2.19-1.04-4.17-1.87-5.94-.78-1.5-.97-2.78-.58-3.86.39-1.08,1.41-1.62,3.07-1.62h18.54c.94,0,1.79.21,2.53.62.75.42,1.12,1.09,1.12,2.04v4.66c1.11-2.33,2.7-4.27,4.78-5.82,2.08-1.55,4.72-2.33,7.94-2.33,1.5,0,2.78.19,3.86.58,1.08.39,2.04.5,2.87.33Z"/>
        <path class="cls-2" d="M337.79,192.67c-.77-.52-1.59-.63-2.45-.32-2.16.8-5,1.62-8.51,2.45-3.52.83-8.11,1.25-13.79,1.25-8.39,0-12.58-1.63-12.58-4.9,0-.68.25-1.33.74-1.94,3.15.87,6.6,1.3,10.36,1.3,4.81,0,9.02-.68,12.63-2.04,3.61-1.36,6.61-3.15,9.02-5.37,2.41-2.22,4.21-4.75,5.41-7.59,1.2-2.84,1.81-5.77,1.81-8.79,0-4.01-1.03-7.82-3.1-11.43-2.07-3.61-5.19-6.53-9.39-8.74-1.74-.92-4.53-1.91-6.57-2.5-2.93-.85-6.23-1.11-9.81-1.11-4.81,0-9.04.66-12.67,1.99-3.64,1.33-6.66,3.1-9.07,5.32-2.41,2.22-4.21,4.77-5.41,7.63-1.2,2.87-1.8,5.81-1.8,8.84s.59,5.86,1.76,8.7c1.17,2.84,2.93,5.34,5.27,7.49-1.66,1.79-3.16,3.93-4.49,6.43-1.33,2.5-1.99,5.44-1.99,8.84s.63,6.29,1.9,9.07c1.26,2.78,3.07,5.17,5.41,7.17,2.34,2,5.18,3.56,8.51,4.67,3.33,1.11,7.06,1.67,11.2,1.67,7.59,0,13.56-.37,17.9-1.11,4.35-.74,7.39-1.42,9.11-2.04,1.17-.49,1.76-1.36,1.76-2.59v-20.17c0-.93-.39-1.65-1.16-2.17ZM308.65,159.87c.59-1.79,1.56-2.68,2.91-2.68s2.24.9,2.82,2.68c.59,1.79.88,4.07.88,6.85s-.29,5.06-.88,6.85c-.59,1.79-1.53,2.68-2.82,2.68s-2.33-.89-2.91-2.68c-.59-1.79-.88-4.07-.88-6.85s.29-5.06.88-6.85Z"/>
        <path class="cls-2" d="M390.64,170.66c.99-.99,1.95-1.48,2.88-1.48.66,0,1.21.29,1.65.86s.66,1.41.66,2.51v14.57c0,.99-.08,1.73-.25,2.22-.16.49-.41.82-.74.99-.33.16-.74.22-1.23.16-.49-.05-1.04-.11-1.65-.16-1.26-.11-2.44-.1-3.54.04-1.1.14-2.35.3-3.75.49-1.4.19-3.12.38-5.15.58-2.03.19-4.64.29-7.82.29-4.01,0-7.75-.55-11.24-1.65-3.49-1.1-6.5-2.68-9.06-4.73-2.55-2.06-4.56-4.53-6.01-7.41-1.45-2.88-2.18-6.13-2.18-9.76s.7-6.89,2.1-9.96c1.4-3.07,3.38-5.75,5.93-8.03s5.61-4.08,9.18-5.39c3.57-1.32,7.52-1.98,11.85-1.98,7.35,0,12.95,1.3,16.8,3.91,3.84,2.61,5.76,6.22,5.76,10.83,0,2.58-.66,4.78-1.98,6.59s-3,3.28-5.06,4.4c-2.06,1.13-4.32,1.95-6.79,2.47-2.47.52-4.86.78-7.16.78-2.91,0-5.35-.33-7.33-.99.77,1.81,2.11,3.1,4.04,3.87,1.92.77,4.14,1.15,6.67,1.15,1.81,0,3.43-.18,4.86-.53,1.43-.36,2.7-.79,3.83-1.32,1.12-.52,2.07-1.08,2.84-1.69.77-.6,1.4-1.15,1.89-1.65ZM374.42,158.32c-2.25,0-4.17.69-5.76,2.06-1.59,1.37-2.5,3.38-2.72,6.01,2.52-.16,4.65-.67,6.38-1.52,1.73-.85,2.99-1.77,3.79-2.76.79-.99,1.07-1.87.82-2.63-.25-.77-1.09-1.15-2.51-1.15Z"/>
        <path class="cls-2" d="M68.24,73.22c.82-.22,1.65-.5,2.51-.84.85-.34,1.66-.5,2.4-.5s1.36.3,1.84.89c.48.6.73,1.75.73,3.46v21.21c0,1.19-.35,2.12-1.06,2.79-.71.67-1.56,1.15-2.57,1.45-1,.3-2.08.46-3.24.5-1.15.04-2.14.06-2.96.06-5.06,0-9.36-.8-12.89-2.4-3.53-1.6-6.46-3.83-8.76-6.7-2.31-2.86-4.04-6.31-5.19-10.32-1.15-4.02-1.92-8.48-2.29-13.39h-2.23v6.03c0,3.94.28,7.38.84,10.32.56,2.94,1.39,5.56,2.51,7.87,1.04,2.08,1.3,3.85.78,5.3s-1.9,2.18-4.13,2.18H4.4c-2.23,0-3.61-.73-4.13-2.18-.52-1.45-.3-3.22.67-5.3,1.19-2.31,2.06-4.93,2.62-7.87.56-2.94.84-6.38.84-10.32v-32.36c0-3.94-.28-7.38-.84-10.32-.56-2.94-1.43-5.56-2.62-7.87C-.02,22.82-.25,21.05.27,19.6c.52-1.45,1.9-2.18,4.13-2.18h41.29c5.13,0,9.56.63,13.28,1.9,3.72,1.27,6.79,3.01,9.21,5.25,2.42,2.23,4.2,4.85,5.36,7.87,1.15,3.01,1.73,6.27,1.73,9.76,0,5.28-1.67,9.9-5.02,13.84-3.35,3.94-7.78,6.88-13.28,8.82.6,2.38,1.56,4.45,2.9,6.19,1.34,1.75,3.2,2.62,5.58,2.62.97,0,1.9-.15,2.79-.45ZM34.54,35.61v20.09h2.57c2.9,0,4.97-1.04,6.19-3.12,1.23-2.08,1.84-4.54,1.84-7.37,0-2.53-.58-4.76-1.73-6.7-1.16-1.93-3.18-2.9-6.08-2.9h-2.79Z"/>
        <path class="cls-2" d="M195.06,58.97c-.89,1.78-1.54,3.75-1.96,5.91-.42,2.17-.62,4.72-.62,7.66v9.5c0,2.94.21,5.51.62,7.7.42,2.19,1.07,4.15,1.96,5.87.72,1.56.89,2.87.5,3.96-.39,1.08-1.42,1.62-3.08,1.62h-19.08c-.89,0-1.64-.3-2.25-.92-.61-.61-.92-1.36-.92-2.25v-4.58c-1.28,2.5-3,4.55-5.16,6.16-2.17,1.61-5,2.42-8.5,2.42-2.78,0-5.23-.61-7.37-1.83-2.14-1.22-3.94-2.94-5.41-5.16-1.47-2.22-2.6-4.84-3.37-7.87-.78-3.03-1.17-6.34-1.17-9.95s.39-6.93,1.17-9.95c.78-3.03,1.9-5.65,3.37-7.87,1.47-2.22,3.28-3.94,5.41-5.17,2.14-1.22,4.59-1.83,7.37-1.83,3.5,0,6.33.81,8.5,2.42,2.17,1.61,3.89,3.66,5.16,6.16v-4.33c0-.94.3-1.72.92-2.33s1.36-.92,2.25-.92h19.08c1.67,0,2.69.54,3.08,1.62.39,1.08.22,2.4-.5,3.96ZM170.24,73.21c0-1.39-.29-2.6-.87-3.62-.58-1.03-1.6-1.54-3.04-1.54-1.61,0-2.75.79-3.42,2.37-.67,1.58-1,3.85-1,6.79s.33,5.21,1,6.79c.67,1.58,1.8,2.37,3.42,2.37,1.44,0,2.46-.51,3.04-1.54.58-1.03.87-2.23.87-3.62v-8Z"/>
        <path class="cls-2" d="M235.46,52.46c2.69,0,5.08.59,7.15,1.78,2.07,1.19,3.82,2.86,5.25,5.01,1.43,2.15,2.52,4.7,3.27,7.64.75,2.94,1.13,6.15,1.13,9.66s-.38,6.72-1.13,9.66c-.76,2.94-1.85,5.48-3.27,7.64-1.43,2.16-3.18,3.83-5.25,5.01-2.07,1.18-4.46,1.78-7.15,1.78-3.39,0-6.14-.78-8.24-2.34-2.1-1.56-3.77-3.56-5.01-5.98v10.18c.11,2.42.35,4.58.73,6.46.38,1.88.94,3.61,1.7,5.17.75,1.51.94,2.77.57,3.8-.38,1.02-1.37,1.54-2.99,1.54h-21.57c-1.62,0-2.63-.51-3.03-1.54-.4-1.02-.23-2.29.53-3.8.81-1.72,1.43-3.64,1.86-5.74.43-2.1.65-4.58.65-7.43v-28.93c0-2.85-.2-5.33-.61-7.43-.4-2.1-1.04-4.01-1.9-5.74-.7-1.51-.86-2.79-.48-3.84.38-1.05,1.37-1.58,2.99-1.58h18.02c.91,0,1.74.23,2.46.69.73.46,1.09,1.15,1.09,2.06v4.61c1.24-2.42,2.91-4.42,5.01-5.98,2.1-1.56,4.85-2.34,8.24-2.34ZM225.92,85.43c1.56,0,2.68-.77,3.35-2.3.67-1.54,1.01-3.73,1.01-6.59s-.34-5.05-1.01-6.59c-.67-1.54-1.79-2.3-3.35-2.3-1.24,0-2.14.42-2.71,1.25-.57.84-.9,1.87-1.01,3.11v9.05c.11,1.19.44,2.21,1.01,3.07.57.86,1.47,1.29,2.71,1.29Z"/>
        <path class="cls-2" d="M277.31,70.63c0,.72.57,1.32,1.7,1.82,1.13.5,2.53,1.02,4.18,1.57,1.66.55,3.48,1.17,5.46,1.86,1.99.69,3.81,1.59,5.46,2.69,1.66,1.1,3.05,2.47,4.18,4.1,1.13,1.63,1.7,3.63,1.7,6,0,1.88-.43,3.64-1.28,5.3-.86,1.66-2.15,3.1-3.89,4.35-1.74,1.24-3.92,2.24-6.54,2.98-2.62.75-5.67,1.12-9.15,1.12-2.37,0-4.42-.07-6.13-.21-1.71-.14-3.22-.28-4.51-.41-1.3-.14-2.47-.28-3.52-.41-1.05-.14-2.07-.21-3.06-.21s-2.07.08-3.23.25c-1.21.22-2.17.15-2.86-.21-.69-.36-1.04-1.48-1.04-3.35v-15.23c0-1.05.21-1.82.62-2.32.41-.5.92-.74,1.53-.74,1.05,0,2.15.58,3.31,1.74.5.5,1.21,1.06,2.15,1.7.94.63,2,1.21,3.19,1.74,1.19.53,2.48.98,3.89,1.37,1.41.39,2.83.58,4.26.58,1.54,0,2.55-.15,3.02-.46.47-.3.7-.7.7-1.2,0-.72-.57-1.38-1.7-1.99-1.13-.61-2.53-1.27-4.18-1.99-1.66-.72-3.48-1.49-5.46-2.32-1.99-.83-3.81-1.82-5.46-2.98-1.66-1.16-3.05-2.51-4.18-4.06-1.13-1.54-1.7-3.37-1.7-5.46,0-1.71.47-3.35,1.41-4.93.94-1.57,2.32-2.95,4.14-4.14,1.82-1.19,4.1-2.12,6.83-2.81,2.73-.69,5.92-1.03,9.56-1.03,2.59,0,4.7.04,6.33.12,1.63.08,2.97.18,4.01.29,1.05.11,1.92.21,2.61.29.69.08,1.37.12,2.03.12.77,0,1.68-.08,2.73-.25.61-.11,1.16-.17,1.66-.17s.91.12,1.24.37c.33.25.58.64.74,1.16.17.53.25,1.26.25,2.19v14.82c0,.99-.21,1.74-.62,2.23-.41.5-.92.75-1.53.75-.99,0-2.1-.55-3.31-1.66-.55-.5-1.19-1.02-1.9-1.57-.72-.55-1.56-1.06-2.53-1.53-.97-.47-2.06-.85-3.27-1.16-1.21-.3-2.62-.46-4.22-.46-1.11,0-1.99.15-2.65.46-.66.3-.99.73-.99,1.28Z"/>
        <path class="cls-2" d="M501,70.63c0,.72.57,1.32,1.7,1.82,1.13.5,2.53,1.02,4.18,1.57,1.66.55,3.48,1.17,5.46,1.86,1.99.69,3.81,1.59,5.46,2.69,1.66,1.1,3.05,2.47,4.18,4.1,1.13,1.63,1.7,3.63,1.7,6,0,1.88-.43,3.64-1.28,5.3-.86,1.66-2.15,3.1-3.89,4.35-1.74,1.24-3.92,2.24-6.54,2.98-2.62.75-5.67,1.12-9.15,1.12-2.37,0-4.42-.07-6.13-.21-1.71-.14-10.69-.26-11.99-.4-1.3-.14-4.99-.29-6.04-.43-1.05-.14-2.07-.21-3.06-.21s-2.07.08-3.23.25c-1.21.22-2.17.15-2.86-.21-.69-.36-1.04-1.48-1.04-3.35v-15.23c0-1.05.21-1.82.62-2.32.41-.5.92-.74,1.53-.74,1.05,0,2.15.58,3.31,1.74.5.5,1.21,1.06,2.15,1.7.94.63,2,1.21,3.19,1.74,1.19.53,2.49.97,3.89,1.37,5.83,1.65,12.95,1.49,14.39,1.49,1.54,0,2.24-.84,2.9-1.36.44-.35.7-.7.7-1.2,0-.72-.57-1.38-1.7-1.99-1.13-.61-2.53-1.27-4.18-1.99-1.66-.72-3.48-1.49-5.46-2.32-1.99-.83-3.81-1.82-5.46-2.98-1.66-1.16-3.05-2.51-4.18-4.06-1.13-1.54-1.7-3.37-1.7-5.46,0-1.71.47-3.35,1.41-4.93.94-1.57,2.32-2.95,4.14-4.14,1.82-1.19,4.1-2.12,6.83-2.81,2.73-.69,5.92-1.03,9.56-1.03,2.59,0,4.7.04,6.33.12,1.63.08,2.97.18,4.01.29,1.05.11,1.92.21,2.61.29.69.08,1.37.12,2.03.12.77,0,1.68-.08,2.73-.25.61-.11,1.16-.17,1.66-.17s.91.12,1.24.37c.33.25.58.64.74,1.16.17.53.25,1.26.25,2.19v14.82c0,.99-.21,1.74-.62,2.23-.41.5-.92.75-1.53.75-.99,0-2.1-.55-3.31-1.66-.55-.5-1.19-1.02-1.9-1.57-.72-.55-1.56-1.06-2.53-1.53-.97-.47-2.06-.85-3.27-1.16-1.21-.3-2.62-.46-4.22-.46-1.11,0-1.99.15-2.65.46-.66.3-.99.73-.99,1.28Z"/>
        <path class="cls-2" d="M479.6,159.01c0,.72.57,1.32,1.7,1.82,1.13.5,2.53,1.02,4.18,1.57,1.66.55,3.48,1.17,5.46,1.86,1.99.69,3.81,1.59,5.46,2.69,1.66,1.1,3.05,2.47,4.18,4.1,1.13,1.63,1.7,3.63,1.7,6,0,1.88-.43,3.64-1.28,5.3-.86,1.66-2.15,3.1-3.89,4.35-1.74,1.24-3.92,2.24-6.54,2.98-2.62.75-5.67,1.12-9.15,1.12-2.37,0-4.42-.07-6.13-.21-1.71-.14-10.69-.26-11.99-.4-1.3-.14-4.99-.29-6.04-.43-1.05-.14-2.07-.21-3.06-.21s-2.07.08-3.23.25c-1.21.22-2.17.15-2.86-.21-.69-.36-1.04-1.48-1.04-3.35v-15.23c0-1.05.21-1.82.62-2.32.41-.5.92-.74,1.53-.74,1.05,0,2.15.58,3.31,1.74.5.5,1.21,1.06,2.15,1.7.94.63,2,1.21,3.19,1.74,1.19.53,2.49.97,3.89,1.37,5.83,1.65,12.95,1.49,14.39,1.49,1.54,0,2.24-.84,2.9-1.36.44-.35.7-.7.7-1.2,0-.72-.57-1.38-1.7-1.99-1.13-.61-2.53-1.27-4.18-1.99-1.66-.72-3.48-1.49-5.46-2.32-1.99-.83-3.81-1.82-5.46-2.98-1.66-1.16-3.05-2.51-4.18-4.06-1.13-1.54-1.7-3.37-1.7-5.46,0-1.71.47-3.35,1.41-4.93.94-1.57,2.32-2.95,4.14-4.14,1.82-1.19,4.1-2.12,6.83-2.81,2.73-.69,5.92-1.03,9.56-1.03,2.59,0,4.7.04,6.33.12,1.63.08,2.97.18,4.01.29,1.05.11,1.92.21,2.61.29.69.08,1.37.12,2.03.12.77,0,1.68-.08,2.73-.25.61-.11,1.16-.17,1.66-.17s.91.12,1.24.37c.33.25.58.64.74,1.16.17.53.25,1.26.25,2.19v14.82c0,.99-.21,1.74-.62,2.23-.41.5-.92.75-1.53.75-.99,0-2.1-.55-3.31-1.66-.55-.5-1.19-1.02-1.9-1.57-.72-.55-1.56-1.06-2.53-1.53-.97-.47-2.06-.85-3.27-1.16-1.21-.3-2.62-.46-4.22-.46-1.11,0-1.99.15-2.65.46-.66.3-.99.73-.99,1.28Z"/>
        <path class="cls-2" d="M406.21,82.43c0,2.88-.11,8.08.3,10.22.41,2.15,1.33,9.39,2.15,11.07.76,1.52.95,2.81.57,3.87s-1.39,1.59-3.02,1.59h-19.01c-.76,0-1.41-.27-1.96-.82-.54-.54-.82-1.22-.82-2.04v-12.73c-1.25,2.45-2.94,4.46-5.06,6.04s-4.89,2.37-8.32,2.37c-2.72,0-5.13-.6-7.22-1.79s-3.86-2.88-5.3-5.06c-1.44-2.17-2.54-4.74-3.3-7.71-.76-2.96-1.14-6.21-1.14-9.75s.38-6.78,1.14-9.75c.76-2.96,1.86-5.53,3.3-7.71s3.21-3.86,5.3-5.06c2.09-1.2,4.5-1.79,7.22-1.79,3.43,0,6.2.79,8.32,2.37,2.12,1.58,3.81,3.59,5.06,6.04v-7.59c0-2.88-.22-5.38-.65-7.5-.44-2.12-1.06-4.05-1.88-5.79-.76-1.52-.94-2.81-.53-3.87s1.43-1.59,3.06-1.59h18.19c1.03,0,1.89.22,2.57.65.68.44,1.02,1.12,1.02,2.04v44.3ZM384.43,73.62c-.05-1.36-.35-2.51-.9-3.47-.54-.95-1.52-1.43-2.94-1.43-1.58,0-2.69.77-3.34,2.32-.65,1.55-.98,3.77-.98,6.65s.33,5.1.98,6.65c.65,1.55,1.77,2.33,3.34,2.33,1.41,0,2.39-.49,2.94-1.47s.84-2.12.9-3.43v-8.16Z"/>
        <path class="cls-2" d="M468.07,52.99h-18.2c-1.45,0-2.56.29-3.34.88-.78.58-.95,1.71-.5,3.38.39,1.34.6,2.88.63,4.63.03,1.75-.43,3.91-1.38,6.47l-1.59,4.01c-.11.39-.37.58-.79.58s-.71-.19-.88-.58l-1.59-4.43c-.5-1.39-.86-2.62-1.08-3.67-.22-1.06-.35-2-.38-2.84-.03-.84.01-1.59.13-2.25.11-.67.25-1.31.42-1.92.39-1.61.19-2.73-.58-3.34-.78-.61-1.89-.92-3.34-.92h-24.21c-1.11,0-1.7.39-1.75,1.17-.06.78.3,1.67,1.08,2.67.78.95,1.47,1.89,2.09,2.84.61.95,1.21,1.99,1.8,3.13.58,1.14,1.17,2.42,1.75,3.84s1.24,3.08,1.96,4.97l9.35,24.7h0c1.76,4.14,1.38,7.86-2.39,12.12-2.94,3.33-7.5,5.38-9.03,5.99-12.21,4.8-33.61,7.59-58.05-7.2-1.47-.89-2.6-1.96-3.55-2.96-1-1.11-2.06-1.67-3.17-1.67-.67,0-1.23.25-1.67.75-.45.5-.67,1.25-.67,2.25,3.41,15.47,15.95,27.36,31.61,29.73.19.03.38.06.58.09,24.1,3.55,53.88-1.36,68.82-31.74,0,0,1.34-3.46,1.34-3.46l9.5-28.51c.72-1.84,1.39-3.49,2-4.97.61-1.47,1.21-2.81,1.8-4.01.58-1.2,1.18-2.28,1.8-3.26.61-.97,1.28-1.88,2-2.71.78-.95,1.15-1.81,1.13-2.59-.03-.78-.57-1.17-1.63-1.17Z"/>
        <path class="cls-2" d="M478.22,59.87c-.72.83-1.57,1.19-2.54,1.09l-5.2-.55c-.31-.03-.54-.23-.68-.6-.14-.37-.11-.74.09-1.12,1.15-2.24,2.07-4.54,2.77-6.88.7-2.34,1.24-4.85,1.6-7.53.06-.55.26-.99.61-1.33s.74-.49,1.17-.44l7.25.77c.47.05.84.32,1.13.8s.35,1.05.2,1.68c-.5,2.87-1.32,5.49-2.46,7.86-1.14,2.37-2.45,4.46-3.95,6.26Z"/>
        <g id="N2mYJl">
          <path class="cls-2" d="M277.88,148.45c2.46-4.28,4.63-8.71,7.39-12.73,7.6-11.07,17.07-19.89,30.6-23.06,6.43-1.51,12.93-1.61,18.84,2.03,7.72,4.76,9.05,14.16,6.65,20.78-.34.95-.92,1.87-1.58,2.63-1.36,1.57-3.7,1.74-5,.14-3.98-4.85-9.37-5.9-15.16-5.91-14.61-.02-26.2,6.23-35.31,17.36-5.45,6.65-8.22,14.36-6.84,22.92.33,2.04.69,4.13,1.07,6.15.42,2.23,1.18,4.42,2.03,6.54,1.34,3.36.28,5.14-3.32,5.16-6.83.03-13.67.02-20.5.01-.63,0-1.27-.02-1.89-.1-1.71-.21-2.57-1.18-2.5-2.89.03-.62.13-1.29.4-1.83,2.52-5.1,2.98-10.55,2.86-16.11-.06-3.04,0-6.09-.04-9.13-.04-4.24-.86-8.31-2.64-12.19-1.54-3.36-.33-5.08,3.34-5.27,1.72-.09,3.47.02,5.11,0,2.2,0,3.63,0,5.54,0,2.06,0,4.13-.02,6.2,0,4.16.05,4.75.68,4.77,4.84,0,.22,0,.45,0,.64Z"/>
        </g>
      </g>
    </g>
  </g>
</svg>