<svg xmlns="http://www.w3.org/2000/svg" viewBox="0 0 523.68 220.76"><defs><style>.cls-1{fill:#febd01;}.cls-2{fill:#fff;}</style></defs><g id="Capa_2" data-name="Capa 2"><g id="TEXTO"><path class="cls-1" d="M136,81.89a42.54,42.54,0,0,0,.62,7.72,21.18,21.18,0,0,0,2,5.88,5.25,5.25,0,0,1,.5,4c-.39,1.08-1.42,1.63-3.09,1.63H113.67c-1.67,0-2.7-.55-3.09-1.63a5.06,5.06,0,0,1,.58-4A23.32,23.32,0,0,0,113,89.61a41.59,41.59,0,0,0,.63-7.72V73.62a14.82,14.82,0,0,0-.13-2,4.72,4.72,0,0,0-.54-1.76,3.52,3.52,0,0,0-1.21-1.25,3.82,3.82,0,0,0-2.05-.5,3.63,3.63,0,0,0-3,1.25,5.35,5.35,0,0,0-1,3.43v9.1a42.54,42.54,0,0,0,.62,7.72,21.18,21.18,0,0,0,2,5.88,5.3,5.3,0,0,1,.5,4c-.39,1.08-1.42,1.63-3.09,1.63H83.45c-1.67,0-2.7-.55-3.09-1.63a5.06,5.06,0,0,1,.58-4,23.32,23.32,0,0,0,1.88-5.88,41.59,41.59,0,0,0,.63-7.72V53a40.91,40.91,0,0,0-.63-7.68,25.11,25.11,0,0,0-1.88-5.93,5,5,0,0,1-.58-4c.39-1.09,1.42-1.63,3.09-1.63h18.61a4.86,4.86,0,0,1,2.55.67,2.25,2.25,0,0,1,1.13,2.08V61a18.73,18.73,0,0,1,5.76-6.22,14.47,14.47,0,0,1,8.43-2.47,17.08,17.08,0,0,1,7.39,1.46,13.34,13.34,0,0,1,5,4,16.62,16.62,0,0,1,2.8,6A29.62,29.62,0,0,1,136,71.2Z"/><path class="cls-1" d="M347.3,77.77a21.94,21.94,0,0,1-1.55,8.33,19.32,19.32,0,0,1-10.92,11,23.68,23.68,0,0,1-17.06,0,20.08,20.08,0,0,1-6.65-4.37,19.61,19.61,0,0,1-4.33-6.61,23.3,23.3,0,0,1,0-16.66,19.66,19.66,0,0,1,4.33-6.6,19.93,19.93,0,0,1,6.65-4.37,23.68,23.68,0,0,1,17.06,0,19.65,19.65,0,0,1,6.63,4.37,19.87,19.87,0,0,1,4.29,6.6A22,22,0,0,1,347.3,77.77Zm-16.46,0a11.71,11.71,0,0,0-1.12-5.5,3.64,3.64,0,0,0-3.42-2.12,3.72,3.72,0,0,0-3.45,2.12,11.57,11.57,0,0,0-1.15,5.5,11.4,11.4,0,0,0,1.15,5.44,3.72,3.72,0,0,0,3.45,2.12,3.64,3.64,0,0,0,3.42-2.12A11.54,11.54,0,0,0,330.84,77.77Z"/><path class="cls-1" d="M176.39,147.55a28.39,28.39,0,0,1,9.82,8.54,20.33,20.33,0,0,1,3.83,12.2q0,11-7.54,16.59t-22.42,5.6H119.59q-3.33,0-4.11-2.16t.78-5.27a31.07,31.07,0,0,0,2.49-7.82,55.11,55.11,0,0,0,.84-10.27V132.79a55.26,55.26,0,0,0-.84-10.27,31.2,31.2,0,0,0-2.49-7.82q-1.56-3.11-.78-5.27t4.11-2.16h37.72q14.66,0,22.58,5.1t7.93,16.54a20.63,20.63,0,0,1-2.88,10.87A21.38,21.38,0,0,1,176.39,147.55Zm-18.52-14.32a7.68,7.68,0,0,0-.45-2.44,10.13,10.13,0,0,0-1.27-2.55,7.5,7.5,0,0,0-2.11-2.05,5.22,5.22,0,0,0-2.94-.84h-1.56V142h1.22a5.92,5.92,0,0,0,3.22-.84,7.42,7.42,0,0,0,2.22-2.1,8.65,8.65,0,0,0,1.28-2.83A12.36,12.36,0,0,0,157.87,133.23Zm-6,39.17q4.11,0,6.16-2.55a8.53,8.53,0,0,0,2.05-5.44,8.64,8.64,0,0,0-.55-2.89A10.19,10.19,0,0,0,158,158.7a9.26,9.26,0,0,0-2.44-2.17,6.28,6.28,0,0,0-3.33-.89h-2.67V172.4Z"/><path class="cls-1" d="M245.44,171.35a41.17,41.17,0,0,0,.62,7.67,21,21,0,0,0,1.95,5.84,5.22,5.22,0,0,1,.49,3.94c-.38,1.08-1.41,1.61-3.06,1.61H227a4.84,4.84,0,0,1-2.52-.66,2.22,2.22,0,0,1-1.12-2.07v-5.06a19.79,19.79,0,0,1-5.52,6.18,12.79,12.79,0,0,1-7.74,2.44,19.09,19.09,0,0,1-7.92-1.45,13.53,13.53,0,0,1-5.18-4,15.2,15.2,0,0,1-2.82-5.92,31.29,31.29,0,0,1-.83-7.38V161.9a41.16,41.16,0,0,0-.62-7.62,25.09,25.09,0,0,0-1.86-5.89,5,5,0,0,1-.58-3.94c.38-1.07,1.4-1.61,3.06-1.61h22.13c1.66,0,2.68.54,3.07,1.61a5.18,5.18,0,0,1-.5,3.94,23,23,0,0,0-1.95,5.89,41.16,41.16,0,0,0-.62,7.62v8.21a14.89,14.89,0,0,0,.13,2,5.07,5.07,0,0,0,.54,1.78,3.27,3.27,0,0,0,1.2,1.28,3.74,3.74,0,0,0,2,.5,3.55,3.55,0,0,0,3-1.28,5.45,5.45,0,0,0,1-3.44v-9c0-2.93.67-16-.62-20.62a39.17,39.17,0,0,0-1.87-5.89,5,5,0,0,1-.58-3.94c.39-1.07,1.41-1.61,3.07-1.61h22.13c1.65,0,2.68.54,3.06,1.61a5.22,5.22,0,0,1-.49,3.94,29.49,29.49,0,0,0-1.95,5.89c-1.07,4.09-.62,17.69-.62,20.62Z"/><path class="cls-1" d="M68.24,73.22a25.36,25.36,0,0,0,2.51-.83,6.56,6.56,0,0,1,2.4-.51,2.26,2.26,0,0,1,1.84.9,5.75,5.75,0,0,1,.73,3.46v21.2a3.68,3.68,0,0,1-1.06,2.79,6.33,6.33,0,0,1-2.57,1.45,12.35,12.35,0,0,1-3.24.5c-1.15,0-2.14.06-2.95.06A31.13,31.13,0,0,1,53,99.84a23.33,23.33,0,0,1-8.76-6.7,28.82,28.82,0,0,1-5.19-10.32,66.3,66.3,0,0,1-2.29-13.39H34.54v6a55.83,55.83,0,0,0,.83,10.32,31.88,31.88,0,0,0,2.51,7.87q1.57,3.12.78,5.3t-4.12,2.17H4.4Q1.05,101.12.27,99c-.52-1.45-.29-3.22.67-5.3a28.9,28.9,0,0,0,2.63-7.87A56.71,56.71,0,0,0,4.4,75.46V43.09a56.71,56.71,0,0,0-.83-10.32A28.9,28.9,0,0,0,.94,24.9C0,22.82-.25,21.05.27,19.6s1.9-2.18,4.13-2.18H45.7A41.26,41.26,0,0,1,59,19.32a25.28,25.28,0,0,1,9.2,5.24,20.65,20.65,0,0,1,5.36,7.87,27.2,27.2,0,0,1,1.73,9.77,20.73,20.73,0,0,1-5,13.84A30.07,30.07,0,0,1,57,64.85a16.67,16.67,0,0,0,2.9,6.2,6.63,6.63,0,0,0,5.58,2.62A8.68,8.68,0,0,0,68.24,73.22ZM34.54,35.61V55.7H37.1q4.35,0,6.2-3.12a14.34,14.34,0,0,0,1.84-7.37,12.88,12.88,0,0,0-1.73-6.7c-1.16-1.93-3.18-2.9-6.08-2.9Z"/><path class="cls-1" d="M195.06,59a22.68,22.68,0,0,0-2,5.91,41.69,41.69,0,0,0-.62,7.66V82a42.31,42.31,0,0,0,.62,7.7,21.51,21.51,0,0,0,2,5.88,5.2,5.2,0,0,1,.5,3.95c-.39,1.09-1.41,1.63-3.08,1.63H173.4A3.12,3.12,0,0,1,170.24,98V93.45a17.46,17.46,0,0,1-5.17,6.17,13.85,13.85,0,0,1-8.49,2.41,14.64,14.64,0,0,1-7.38-1.83A16,16,0,0,1,143.79,95a25.53,25.53,0,0,1-3.37-7.87,42.94,42.94,0,0,1,0-19.91,25.63,25.63,0,0,1,3.37-7.87,16,16,0,0,1,5.41-5.16,14.64,14.64,0,0,1,7.38-1.84,13.85,13.85,0,0,1,8.49,2.42A17.51,17.51,0,0,1,170.24,61V56.63a3.16,3.16,0,0,1,.91-2.33,3.06,3.06,0,0,1,2.25-.92h19.08c1.67,0,2.69.55,3.08,1.63A5.23,5.23,0,0,1,195.06,59ZM170.24,73.21a7.11,7.11,0,0,0-.88-3.62,3.18,3.18,0,0,0-3-1.54,3.47,3.47,0,0,0-3.41,2.37,18.06,18.06,0,0,0-1,6.79,18.1,18.1,0,0,0,1,6.79,3.47,3.47,0,0,0,3.41,2.37,3.18,3.18,0,0,0,3-1.54,7.14,7.14,0,0,0,.88-3.62Z"/><path class="cls-1" d="M501,70.63c0,.72.56,1.33,1.7,1.83s2.52,1,4.18,1.57,3.47,1.17,5.46,1.86a23.93,23.93,0,0,1,5.46,2.69,15.53,15.53,0,0,1,4.18,4.1,10.28,10.28,0,0,1,1.7,6,11.34,11.34,0,0,1-1.29,5.3,12.31,12.31,0,0,1-3.88,4.34,21.07,21.07,0,0,1-6.54,3,33.45,33.45,0,0,1-9.15,1.12c-2.37,0-4.42-.07-6.13-.21s-10.69-.26-12-.39-5-.3-6-.44a25,25,0,0,0-3.07-.2,22.36,22.36,0,0,0-3.23.25,4.46,4.46,0,0,1-2.85-.21c-.69-.36-1-1.48-1-3.35V82.64a3.61,3.61,0,0,1,.62-2.32,1.94,1.94,0,0,1,1.54-.75A4.91,4.91,0,0,1,474,81.31,14,14,0,0,0,476.1,83a21.22,21.22,0,0,0,3.19,1.74,29.93,29.93,0,0,0,3.89,1.36c5.82,1.66,12.95,1.49,14.38,1.49a4.12,4.12,0,0,0,2.9-1.36,1.51,1.51,0,0,0,.7-1.2c0-.72-.56-1.38-1.69-2s-2.53-1.27-4.18-2-3.48-1.49-5.47-2.31a29.19,29.19,0,0,1-5.46-3,17.75,17.75,0,0,1-4.18-4.06,9,9,0,0,1-1.7-5.46,9.5,9.5,0,0,1,1.41-4.93A13,13,0,0,1,484,57.18a22.8,22.8,0,0,1,6.83-2.81,39.32,39.32,0,0,1,9.56-1q3.88,0,6.33.12c1.63.08,3,.18,4,.29l2.6.29a17.66,17.66,0,0,0,2,.12,17.34,17.34,0,0,0,2.73-.25,9.36,9.36,0,0,1,1.66-.16,2,2,0,0,1,1.24.37,2.23,2.23,0,0,1,.74,1.16,7.47,7.47,0,0,1,.25,2.19V72.29a3.37,3.37,0,0,1-.62,2.23,1.9,1.9,0,0,1-1.53.75,5.19,5.19,0,0,1-3.31-1.66c-.55-.49-1.19-1-1.9-1.57a14.74,14.74,0,0,0-2.53-1.53,17.14,17.14,0,0,0-3.27-1.16,17.67,17.67,0,0,0-4.22-.45,6.52,6.52,0,0,0-2.65.45A1.42,1.42,0,0,0,501,70.63Z"/><path class="cls-1" d="M479.6,159c0,.72.57,1.33,1.7,1.82s2.53,1,4.18,1.58,3.48,1.17,5.46,1.86a24.21,24.21,0,0,1,5.47,2.69,15.53,15.53,0,0,1,4.18,4.1,10.23,10.23,0,0,1,1.69,6,11.29,11.29,0,0,1-1.28,5.29,12.29,12.29,0,0,1-3.89,4.35,21.31,21.31,0,0,1-6.54,3,33.76,33.76,0,0,1-9.14,1.12q-3.57,0-6.13-.21c-1.71-.14-10.69-.26-12-.4s-5-.29-6-.43a23.1,23.1,0,0,0-3.06-.2,23.78,23.78,0,0,0-3.23.24,4.51,4.51,0,0,1-2.86-.2c-.69-.36-1-1.48-1-3.36V171a3.58,3.58,0,0,1,.62-2.31,1.9,1.9,0,0,1,1.53-.75,4.89,4.89,0,0,1,3.31,1.74,15.78,15.78,0,0,0,2.15,1.7,21.22,21.22,0,0,0,3.19,1.74,31,31,0,0,0,3.89,1.36c5.83,1.65,13,1.49,14.39,1.49a4.1,4.1,0,0,0,2.9-1.37,1.51,1.51,0,0,0,.7-1.2c0-.71-.57-1.37-1.7-2s-2.52-1.27-4.18-2-3.47-1.49-5.46-2.32a28,28,0,0,1-5.46-3,17.52,17.52,0,0,1-4.18-4,9,9,0,0,1-1.7-5.46,9.48,9.48,0,0,1,1.41-4.93,13,13,0,0,1,4.14-4.14,22.73,22.73,0,0,1,6.82-2.81,39.37,39.37,0,0,1,9.57-1q3.89,0,6.33.13c1.62.08,3,.18,4,.29s1.92.2,2.61.29a17.53,17.53,0,0,0,2,.12,17.34,17.34,0,0,0,2.73-.25,9.26,9.26,0,0,1,1.65-.16,2,2,0,0,1,1.25.37,2.25,2.25,0,0,1,.74,1.16,7.38,7.38,0,0,1,.25,2.19v14.82a3.43,3.43,0,0,1-.62,2.23,1.93,1.93,0,0,1-1.53.75,5.17,5.17,0,0,1-3.31-1.66c-.56-.49-1.19-1-1.91-1.57a15,15,0,0,0-2.52-1.53,16.71,16.71,0,0,0-3.27-1.16,17.7,17.7,0,0,0-4.22-.46,6.47,6.47,0,0,0-2.65.46A1.42,1.42,0,0,0,479.6,159Z"/><path class="cls-1" d="M478.22,59.87A2.85,2.85,0,0,1,475.68,61l-5.2-.56a.81.81,0,0,1-.68-.6,1.31,1.31,0,0,1,.09-1.12,41.29,41.29,0,0,0,2.78-6.88,50.25,50.25,0,0,0,1.6-7.53,2.12,2.12,0,0,1,.61-1.34,1.43,1.43,0,0,1,1.17-.44l7.25.77a1.49,1.49,0,0,1,1.13.8,2.25,2.25,0,0,1,.2,1.69,30,30,0,0,1-2.46,7.86A30.52,30.52,0,0,1,478.22,59.87Z"/><path class="cls-1" d="M277.31,70.63c0,.72.56,1.33,1.7,1.83s2.52,1,4.18,1.57,3.47,1.17,5.46,1.86a23.93,23.93,0,0,1,5.46,2.69,15.53,15.53,0,0,1,4.18,4.1,10.28,10.28,0,0,1,1.7,6,11.45,11.45,0,0,1-1.28,5.3,12.44,12.44,0,0,1-3.89,4.34,21.07,21.07,0,0,1-6.54,3,33.45,33.45,0,0,1-9.15,1.12q-3.56,0-6.12-.21c-1.72-.14-3.22-.27-4.52-.41s-2.47-.28-3.51-.42a25,25,0,0,0-3.07-.2,22.13,22.13,0,0,0-3.22.25,4.49,4.49,0,0,1-2.86-.21c-.69-.36-1-1.48-1-3.35V82.64a3.55,3.55,0,0,1,.62-2.32,1.9,1.9,0,0,1,1.53-.75,4.89,4.89,0,0,1,3.31,1.74,14.48,14.48,0,0,0,2.15,1.7,21.22,21.22,0,0,0,3.19,1.74,27.22,27.22,0,0,0,3.89,1.36,15.85,15.85,0,0,0,4.26.58,6.51,6.51,0,0,0,3-.45,1.39,1.39,0,0,0,.7-1.2c0-.72-.56-1.38-1.69-2s-2.53-1.27-4.18-2-3.48-1.49-5.46-2.31a29,29,0,0,1-5.47-3,17.75,17.75,0,0,1-4.18-4.06,9,9,0,0,1-1.69-5.46,9.49,9.49,0,0,1,1.4-4.93,13,13,0,0,1,4.14-4.14,22.8,22.8,0,0,1,6.83-2.81,39.32,39.32,0,0,1,9.56-1q3.88,0,6.33.12c1.63.08,3,.18,4,.29l2.6.29a17.66,17.66,0,0,0,2,.12,17.34,17.34,0,0,0,2.73-.25,9.36,9.36,0,0,1,1.66-.16,2,2,0,0,1,1.24.37,2.23,2.23,0,0,1,.74,1.16,7.47,7.47,0,0,1,.25,2.19V72.29a3.37,3.37,0,0,1-.62,2.23,1.9,1.9,0,0,1-1.53.75,5.19,5.19,0,0,1-3.31-1.66c-.55-.49-1.19-1-1.9-1.57a14.74,14.74,0,0,0-2.53-1.53,16.9,16.9,0,0,0-3.27-1.16A17.67,17.67,0,0,0,281,68.9a6.55,6.55,0,0,0-2.65.45A1.42,1.42,0,0,0,277.31,70.63Z"/><path class="cls-1" d="M235.46,52.46a14.23,14.23,0,0,1,7.15,1.78,15.65,15.65,0,0,1,5.25,5,24.73,24.73,0,0,1,3.27,7.64,41.46,41.46,0,0,1,0,19.31,24.77,24.77,0,0,1-3.27,7.63,15.46,15.46,0,0,1-5.25,5,14.13,14.13,0,0,1-7.15,1.78,13.46,13.46,0,0,1-8.24-2.34,16.87,16.87,0,0,1-5-6v10.18a42.83,42.83,0,0,0,.72,6.46,21.79,21.79,0,0,0,1.7,5.17,4.88,4.88,0,0,1,.57,3.8c-.38,1-1.38,1.54-3,1.54H200.63c-1.61,0-2.62-.51-3-1.54a4.68,4.68,0,0,1,.53-3.8,25.84,25.84,0,0,0,1.86-5.73,37.56,37.56,0,0,0,.64-7.44V72a40.26,40.26,0,0,0-.6-7.44,22.3,22.3,0,0,0-1.9-5.73,5.06,5.06,0,0,1-.49-3.84c.38-1,1.38-1.58,3-1.58h18a4.53,4.53,0,0,1,2.47.69,2.28,2.28,0,0,1,1.09,2.06v4.6a16.83,16.83,0,0,1,5-6A13.4,13.4,0,0,1,235.46,52.46Zm-9.54,33a3.46,3.46,0,0,0,3.36-2.3,17,17,0,0,0,1-6.59,17,17,0,0,0-1-6.58,3.46,3.46,0,0,0-3.36-2.31,3,3,0,0,0-2.7,1.26,6.3,6.3,0,0,0-1,3.11v9a6.47,6.47,0,0,0,1,3.07A3,3,0,0,0,225.92,85.43Z"/><path class="cls-1" d="M406.21,82.43c0,2.89-.11,8.08.29,10.23s1.34,9.39,2.15,11.07a5,5,0,0,1,.57,3.88c-.38,1.06-1.38,1.59-3,1.59h-19a2.71,2.71,0,0,1-2-.82,2.77,2.77,0,0,1-.81-2V93.61a17.11,17.11,0,0,1-5.06,6,13.65,13.65,0,0,1-8.32,2.36,14.35,14.35,0,0,1-7.22-1.79,15.77,15.77,0,0,1-5.3-5.06,25.06,25.06,0,0,1-3.31-7.71,42.26,42.26,0,0,1,0-19.5,24.89,24.89,0,0,1,3.31-7.7,15.58,15.58,0,0,1,5.3-5.06,14.25,14.25,0,0,1,7.22-1.8,13.59,13.59,0,0,1,8.32,2.37,17.11,17.11,0,0,1,5.06,6V54.21a37.5,37.5,0,0,0-.66-7.51,25.86,25.86,0,0,0-1.87-5.79,4.74,4.74,0,0,1-.53-3.87c.4-1.06,1.43-1.59,3.06-1.59h18.19a4.67,4.67,0,0,1,2.57.65,2.25,2.25,0,0,1,1,2Zm-21.78-8.81a7.59,7.59,0,0,0-.9-3.46,3.09,3.09,0,0,0-2.94-1.43,3.39,3.39,0,0,0-3.34,2.32,17.82,17.82,0,0,0-1,6.65,17.79,17.79,0,0,0,1,6.65,3.4,3.4,0,0,0,3.34,2.33,3.06,3.06,0,0,0,2.94-1.47,7.74,7.74,0,0,0,.9-3.43Z"/><g id="N2mYJl"><path class="cls-1" d="M277.88,148.45c2.46-4.28,4.63-8.71,7.39-12.74,7.6-11.07,17.07-19.89,30.6-23.06,6.43-1.51,12.93-1.61,18.84,2,7.72,4.75,9.05,14.16,6.64,20.78a8.47,8.47,0,0,1-1.58,2.64,3.23,3.23,0,0,1-5,.14c-4-4.85-9.37-5.9-15.16-5.91-14.61,0-26.21,6.23-35.32,17.37-5.44,6.65-8.21,14.35-6.83,22.92.33,2,.69,4.12,1.06,6.15a36.12,36.12,0,0,0,2,6.54c1.34,3.36.28,5.14-3.32,5.16-6.83,0-13.67,0-20.5,0a14.86,14.86,0,0,1-1.89-.1,2.52,2.52,0,0,1-2.5-2.89,4.7,4.7,0,0,1,.4-1.83c2.52-5.1,3-10.55,2.86-16.12-.06-3,0-6.08,0-9.13a29.28,29.28,0,0,0-2.64-12.18c-1.54-3.36-.33-5.08,3.34-5.27,1.72-.09,3.47,0,5.11,0h5.55c2.06,0,4.13,0,6.19,0,4.17,0,4.76.68,4.77,4.84Z"/></g><path class="cls-2" d="M280.74,132.6c9.55-13.92,20.63-22.2,33.87-25.31,9.06-2.12,16.58-1.24,23,2.7,10.12,6.24,12.15,18.48,8.94,27.35a14.17,14.17,0,0,1-2.6,4.36,9.18,9.18,0,0,1-6.93,3.16,8.39,8.39,0,0,1-1.94-.26,26.66,26.66,0,0,1,7,8l0,0a29.84,29.84,0,0,1,5.46-6.49,34,34,0,0,1,10.94-6.45,38.11,38.11,0,0,1,10.24-2.17,44.29,44.29,0,0,1-25-30.7l-.12-.59v-.6a8.6,8.6,0,0,1,2.05-5.9,7.65,7.65,0,0,1,5.78-2.6,9.1,9.1,0,0,1,2,.23A31,31,0,0,1,350,89.13a26.24,26.24,0,0,1-45.09,4,17,17,0,0,1-1.31,3.38,17.75,17.75,0,0,1-5.58,6.3,26.53,26.53,0,0,1-8.23,3.79,39.16,39.16,0,0,1-10.65,1.33c-2.5,0-4.71-.08-6.56-.22s-3.32-.29-4.66-.43-2.56-.29-3.65-.43a16.18,16.18,0,0,0-4.71,0,9.93,9.93,0,0,1-5.78-.54,77.46,77.46,0,0,0,20.78,29.78c.66.58,1.34,1.14,2,1.7.29.06.57.12.84.2C278.43,136.18,279.53,134.37,280.74,132.6Z"/><path class="cls-2" d="M276.73,47.84c2.72,0,4.88,0,6.61.13s3.15.19,4.31.31,2,.21,2.69.3a13,13,0,0,0,1.37.08,12.29,12.29,0,0,0,1.82-.17,14.82,14.82,0,0,1,2.57-.24,7.52,7.52,0,0,1,4.54,1.47,7.74,7.74,0,0,1,2.69,3.9,12.8,12.8,0,0,1,.5,3.85v6.78a26.26,26.26,0,0,1,46.1,2.24,30.55,30.55,0,0,1,4-9.28,21.2,21.2,0,0,1,7.16-6.8,19.81,19.81,0,0,1,9.95-2.52,21.54,21.54,0,0,1,7.57,1.27c-.07-.47-.15-.93-.23-1.35a20.58,20.58,0,0,0-1.45-4.51,10,10,0,0,1-.71-8.24c1.23-3.2,4.3-5.11,8.2-5.11h3.21A77.9,77.9,0,0,0,254.9,46.68C267,35.94,284.41,21.59,294.15,19c5.1-1.34,20.9,2.85,20.9,2.85a2.67,2.67,0,0,1,3.3-2.36l12.15,3A7.34,7.34,0,1,1,327,36.76L314.83,33.7a2.66,2.66,0,0,1-2-2.9l0-.28s-12.31-3.27-16.28-2.22c-7.66,2-20.37,11.75-31,20.8l.22-.06A44.85,44.85,0,0,1,276.73,47.84Z"/><path class="cls-1" d="M390.64,170.66a4.25,4.25,0,0,1,2.88-1.48,2,2,0,0,1,1.64.87,4.06,4.06,0,0,1,.66,2.51v14.57a7.65,7.65,0,0,1-.24,2.22,1.62,1.62,0,0,1-.74,1,2.21,2.21,0,0,1-1.24.17l-1.65-.17a17.2,17.2,0,0,0-3.53,0c-1.1.14-2.35.3-3.75.5s-3.12.38-5.15.57-4.64.29-7.82.29a37.48,37.48,0,0,1-11.24-1.64,27.36,27.36,0,0,1-9-4.74,22.39,22.39,0,0,1-6-7.41,21.27,21.27,0,0,1-2.19-9.76,23.68,23.68,0,0,1,8-18,28.46,28.46,0,0,1,9.18-5.4,34.19,34.19,0,0,1,11.86-2q11,0,16.79,3.91a12.39,12.39,0,0,1,5.77,10.82,10.89,10.89,0,0,1-2,6.59,15.22,15.22,0,0,1-5.06,4.41A25.24,25.24,0,0,1,381,171a34.69,34.69,0,0,1-7.16.78,23.4,23.4,0,0,1-7.33-1,7,7,0,0,0,4,3.87,17.82,17.82,0,0,0,6.67,1.15,20.49,20.49,0,0,0,4.86-.53A21.86,21.86,0,0,0,385.9,174a13.92,13.92,0,0,0,2.84-1.69A20.68,20.68,0,0,0,390.64,170.66Zm-16.22-12.34a8.11,8.11,0,0,0-8.48,8.06,16.86,16.86,0,0,0,6.38-1.52,11.09,11.09,0,0,0,3.79-2.76,2.85,2.85,0,0,0,.82-2.63C376.68,158.7,375.84,158.32,374.42,158.32Z"/><path class="cls-1" d="M443.52,142.94a4.53,4.53,0,0,1,2.61.08c.64.28,1,1.31,1,3.08v14.79c0,1.94-.7,2.91-2.08,2.91a5.38,5.38,0,0,1-3.41-1.58c-.5-.44-1.06-.92-1.7-1.45a13.55,13.55,0,0,0-2.2-1.46,16.84,16.84,0,0,0-2.83-1.16,11.89,11.89,0,0,0-3.57-.5q-3.75,0-5.49,2.16a9.58,9.58,0,0,0-1.74,6.15v5.41a41.21,41.21,0,0,0,.62,7.68,21,21,0,0,0,1.95,5.86,4.86,4.86,0,0,1,.54,4c-.41,1.08-1.45,1.62-3.11,1.62h-22.2c-1.66,0-2.69-.54-3.07-1.62a5,5,0,0,1,.58-4,23.57,23.57,0,0,0,1.87-5.86,42.08,42.08,0,0,0,.62-7.68V162a42.15,42.15,0,0,0-.62-7.68,25.29,25.29,0,0,0-1.87-5.95,4.79,4.79,0,0,1-.58-3.86c.38-1.08,1.41-1.62,3.07-1.62h18.54a5.15,5.15,0,0,1,2.53.62,2.17,2.17,0,0,1,1.13,2v4.65a15.47,15.47,0,0,1,4.77-5.82,12.94,12.94,0,0,1,7.94-2.32,11.43,11.43,0,0,1,3.87.58A5.33,5.33,0,0,0,443.52,142.94Z"/><path class="cls-1" d="M468.07,53h-18.2a5.51,5.51,0,0,0-3.34.88c-.78.58-.95,1.71-.5,3.38a17.7,17.7,0,0,1,.63,4.64,18.86,18.86,0,0,1-1.38,6.47l-1.59,4a.74.74,0,0,1-.79.59.89.89,0,0,1-.88-.59l-1.59-4.42a28.11,28.11,0,0,1-1.08-3.67,17.29,17.29,0,0,1-.38-2.84,12.23,12.23,0,0,1,.13-2.26,18,18,0,0,1,.42-1.92c.39-1.61.19-2.73-.59-3.34a5.31,5.31,0,0,0-3.34-.92H411.38c-1.12,0-1.7.39-1.75,1.17a4,4,0,0,0,1.08,2.67,33.72,33.72,0,0,1,2.09,2.84,36,36,0,0,1,1.79,3.13c.59,1.15,1.17,2.43,1.76,3.84s1.23,3.08,2,5l9.35,24.71h0c1.75,4.13,1.37,7.85-2.4,12.12a25.54,25.54,0,0,1-9,6c-12.21,4.79-33.61,7.59-58-7.21a16.58,16.58,0,0,1-3.55-3,4.29,4.29,0,0,0-3.18-1.67,2.16,2.16,0,0,0-1.67.75,3.32,3.32,0,0,0-.66,2.25,38.37,38.37,0,0,0,31.6,29.74l.58.08c24.1,3.56,53.88-1.36,68.82-31.74l1.35-3.46L461,71.7q1.08-2.76,2-5c.61-1.48,1.21-2.81,1.79-4s1.19-2.28,1.8-3.26a22.85,22.85,0,0,1,2-2.71,4,4,0,0,0,1.13-2.59C469.67,53.38,469.13,53,468.07,53Z"/><path class="cls-1" d="M337.79,192.67a2.59,2.59,0,0,0-2.45-.32,75,75,0,0,1-8.51,2.45A62,62,0,0,1,313,196.05q-12.59,0-12.58-4.9a3.05,3.05,0,0,1,.74-2,38.77,38.77,0,0,0,10.36,1.3,35.74,35.74,0,0,0,12.63-2,27.07,27.07,0,0,0,9-5.36,21.93,21.93,0,0,0,5.42-7.59,22.37,22.37,0,0,0,1.8-8.79,22.46,22.46,0,0,0-12.49-20.17,39.75,39.75,0,0,0-6.57-2.5,35.51,35.51,0,0,0-9.81-1.11,36.79,36.79,0,0,0-12.67,2,26.63,26.63,0,0,0-9.07,5.32,21.74,21.74,0,0,0-5.41,7.63,22.44,22.44,0,0,0-.05,17.54,21.08,21.08,0,0,0,5.27,7.49,30,30,0,0,0-4.48,6.43,18.57,18.57,0,0,0-2,8.84,21.7,21.7,0,0,0,1.89,9.07,20.65,20.65,0,0,0,5.42,7.17,25.2,25.2,0,0,0,8.51,4.67,35.26,35.26,0,0,0,11.19,1.67,113.66,113.66,0,0,0,17.91-1.11,63.86,63.86,0,0,0,9.11-2A2.63,2.63,0,0,0,339,215V194.85A2.51,2.51,0,0,0,337.79,192.67Zm-29.14-32.8c.58-1.79,1.55-2.68,2.91-2.68s2.24.89,2.82,2.68a27.1,27.1,0,0,1,0,13.7c-.58,1.79-1.52,2.68-2.82,2.68s-2.33-.89-2.91-2.68a27.1,27.1,0,0,1,0-13.7Z"/></g></g></svg>